<?xml version="1.0" encoding="iso-8859-1"?>
<!-- Generator: Adobe Illustrator 19.0.0, SVG Export Plug-In . SVG Version: 6.00 Build 0)  -->
<svg version="1.1" id="Layer_1" xmlns="http://www.w3.org/2000/svg" xmlns:xlink="http://www.w3.org/1999/xlink" x="0px" y="0px"
	 viewBox="0 0 512.002 512.002" fill="white" style="enable-background:new 0 0 512.002 512.002;" xml:space="preserve">
<g>
	<g>
		<path d="M490.187,427.578c-5.932,2.844-11.641,6.392-16.968,10.547c-21.701,16.927-49.746,16.927-71.449,0
			c-32.294-25.19-75.55-25.474-108.107-0.891c9.298-26.029,9.494-25.745,10.423-30.556c2.33-1.508,4.606-3.127,6.811-4.847
			c21.667-16.9,50.781-16.9,72.447,0c32.587,25.417,75.589,25.513,108.298,0c3.633-2.833,7.5-5.241,11.495-7.155
			c8.198-3.93,11.192-14.371,5.77-22.108c1.806-8.867,2.734-17.934,2.734-27.052c0-62.232-42.648-115.956-101.097-131.094
			c-4.486-1.162-9.259-0.182-12.924,2.655c-3.665,2.837-5.81,7.21-5.81,11.845v25.721c0,8.259-6.72,14.979-14.979,14.979H322.43
			l10.852-30.023c23.674-1.244,42.551-20.895,42.551-44.872c0-12.944-5.508-24.619-14.295-32.827l14.953-41.083
			c2.829-7.774-1.179-16.369-8.953-19.199c-7.772-2.829-16.37,1.178-19.199,8.952l-14.319,39.341
			c-1.034-0.071-2.073-0.121-3.125-0.121h-70.359L221.01,123.44c-2.167-1.445-4.441-2.659-6.776-3.693
			c31.57-1.655,56.745-27.857,56.745-59.831C270.979,26.878,244.101,0,211.063,0c-32.974,0-60.914,26.639-60.914,59.916
			c0,26.375,17.479,48.115,40.234,56.31c-22.943,2.795-40.234,21.922-40.234,44.602v108.794h-14.979
			c-8.259,0-14.979-6.72-14.979-14.979v-25.721c0-9.782-9.251-16.956-18.735-14.501C42.968,229.57,0.36,283.328,0.36,345.516
			c0,8.931,0.888,17.817,2.621,26.513c-0.483,0.709-0.924,1.46-1.29,2.27c-3.409,7.537-0.063,16.412,7.474,19.821
			c4.428,2.003,8.697,4.598,12.688,7.711c32.588,25.418,75.59,25.513,108.299,0c21.667-16.9,50.782-16.9,72.448,0
			c2.143,1.672,4.348,3.24,6.602,4.708c-2.242,6.234-4.737,13.17-7.242,20.132c-29.425-13.063-63.776-9.181-90.233,11.454
			c-21.703,16.928-49.748,16.926-71.448,0.001c-5.863-4.574-12.177-8.404-18.767-11.385c-7.541-3.41-16.413-0.064-19.822,7.474
			c-3.409,7.537-0.063,16.412,7.474,19.821c4.428,2.003,8.697,4.598,12.688,7.711c32.588,25.418,75.59,25.513,108.299,0
			c18.41-14.36,41.654-16.667,61.633-6.801c-3.141,8.724-5.432,15.082-5.93,16.447c-2.837,7.77,1.169,16.379,8.948,19.21
			l56.304,20.493c7.738,2.818,16.358-1.147,19.2-8.952c3.32-9.124,6.226-17.146,8.823-24.341
			c11.321-3.108,22.162-8.562,31.768-16.055c21.667-16.9,50.781-16.9,72.447,0c32.587,25.417,75.589,25.513,108.298,0
			c3.633-2.833,7.5-5.241,11.495-7.155c7.46-3.576,10.608-12.522,7.032-19.982C506.594,427.151,497.648,424.002,490.187,427.578z
			 M180.107,59.917c0-16.239,14.176-29.958,30.957-29.958c16.519,0,29.958,13.439,29.958,29.958
			c0,16.519-13.439,29.958-29.958,29.958C194.284,89.875,180.107,76.156,180.107,59.917z M180.106,160.829L180.106,160.829
			c0.001-11.84,14.193-19.192,24.287-12.462l43.298,28.866c2.461,1.641,5.35,2.515,8.308,2.515h74.895
			c8.259,0,14.979,6.72,14.979,14.979s-6.72,14.979-14.979,14.979c-10.473,0-94.35,0-104.853,0c-8.272,0-14.979,6.707-14.979,14.979
			c0,8.272,6.707,14.979,14.979,14.979h14.979v29.958h-60.914V160.829z M301.403,239.664l-10.829,29.958H270.98v-29.958H301.403z
			 M274.029,403.329c-8.012,22.011-13.569,38.073-26.76,74.488l-28.183-10.258c11.289-31.347,26.791-74.476,26.791-74.476
			l-0.016-0.006v-0.001l0.017,0.006c2.825-7.76,11.435-11.778,19.199-8.952C272.776,386.933,276.889,395.474,274.029,403.329z
			 M260.336,353.276c-16.62-0.127-32.388,9.048-40.255,24.227c-32.585-24.771-75.978-24.547-108.354,0.706
			c-21.703,16.928-49.748,16.926-71.448,0.001c-2.041-1.592-4.14-3.089-6.283-4.496c-0.341-2.636-3.679-12.601-3.679-28.198
			c0.001-41.322,23.851-78.118,59.917-95.283v4.411c0,24.778,20.159,44.937,44.937,44.937c3.567,0,140.078,0,144.575,0
			L260.336,353.276z M288.493,363.502L311.6,299.58h65.231c24.778,0,44.937-20.159,44.937-44.937v-4.411
			c36.065,17.165,59.916,53.962,59.916,95.283c0,16.55-3.584,25.764-3.817,29.296c-1.577,1.083-3.13,2.213-4.648,3.397
			c-21.701,16.927-49.746,16.927-71.449,0c-30.89-24.094-71.81-25.404-103.803-3.96
			C295.411,370.195,292.215,366.563,288.493,363.502z"/>
	</g>
</g>
<g>
</g>
<g>
</g>
<g>
</g>
<g>
</g>
<g>
</g>
<g>
</g>
<g>
</g>
<g>
</g>
<g>
</g>
<g>
</g>
<g>
</g>
<g>
</g>
<g>
</g>
<g>
</g>
<g>
</g>
</svg>
