<?xml version="1.0" encoding="iso-8859-1"?>
<!-- Generator: Adobe Illustrator 21.0.0, SVG Export Plug-In . SVG Version: 6.00 Build 0)  -->
<svg version="1.1" id="Capa_1" xmlns="http://www.w3.org/2000/svg" xmlns:xlink="http://www.w3.org/1999/xlink" x="0px" y="0px"
	 viewBox="0 0 512.004 512.004" style="enable-background:new 0 0 512.004 512.004;" xml:space="preserve">
<g>
	<g>
		<g>
			<path d="M503.467,494.935h-14.677c21.349-18.74,28.847-48.749,18.823-75.329s-35.472-44.163-63.879-44.138
				c-10.327-0.021-20.519,2.345-29.781,6.912l-38.315-58.624l-19.456-29.867l-28.245-43.349
				c-4.724-7.235-12.778-11.599-21.419-11.605h-41.984c-4.713,0-8.533,3.82-8.533,8.533s3.82,8.533,8.533,8.533h41.984
				c2.862-0.013,5.532,1.435,7.083,3.84l19.712,30.293h-25.088c-13.345-0.003-26.461,3.467-38.059,10.069l-83.456,47.701
				l-7.253,4.096c-3.708,2.119-8.411,1.171-11.008-2.219l-11.691-15.616c-5.42-7.266-15.575-9.028-23.125-4.011l-14.421,9.643
				c-5.457,3.627-8.345,10.067-7.424,16.555l3.755,26.197c-9.384-4.672-19.726-7.097-30.208-7.083
				c-31.119,0.053-58.287,21.087-66.133,51.2H8.533c-4.713,0-8.533,3.82-8.533,8.533s3.82,8.533,8.533,8.533h8.533
				c-0.014,19.617,8.448,38.282,23.211,51.2H8.533c-4.713,0-8.533,3.82-8.533,8.533s3.82,8.533,8.533,8.533h494.933
				c4.713,0,8.533-3.821,8.533-8.533S508.18,494.935,503.467,494.935z M247.467,375.468H307.2c4.713,0,8.533,3.82,8.533,8.533
				s-3.82,8.533-8.533,8.533h-59.733V375.468z M247.467,409.602H281.6c4.713,0,8.533,3.82,8.533,8.533s-3.82,8.533-8.533,8.533
				h-34.133V409.602z M143.104,344.407l11.691,15.701c7.578,9.849,21.099,12.897,32.171,7.253l2.56,5.12
				c1.033,2.034,1.209,4.398,0.487,6.562c-0.722,2.165-2.28,3.95-4.327,4.958l-43.691,21.845c-2.025-3.225-4.426-6.198-7.151-8.858
				v-0.102l-0.085-0.085l-6.076-42.837L143.104,344.407z M34.133,443.735c-0.016-5.82,0.996-11.598,2.987-17.067h96.427
				c1.991,5.469,3.002,11.246,2.987,17.067H34.133z M85.333,477.868c-4.713,0-8.533-3.82-8.533-8.533s3.82-8.533,8.533-8.533h48.213
				c-2.126,6.349-5.589,12.169-10.155,17.067H85.333z M398.677,494.935H130.389c5.571-4.881,10.299-10.648,13.995-17.067H204.8
				c-4.713,0-8.533-3.82-8.533-8.533v-17.067c0.042-14.121,11.479-25.558,25.6-25.6h17.067c4.713,0,8.533,3.82,8.533,8.533
				s-3.82,8.533-8.533,8.533h-17.067c-4.713,0-8.533,3.821-8.533,8.533v17.067c0,4.713-3.821,8.533-8.533,8.533h85.589
				c13.619,0.046,25.947-8.05,31.317-20.565l48.299-111.019l29.611,45.483c-15.147,12.788-23.964,31.546-24.145,51.369
				C375.291,462.958,383.765,481.874,398.677,494.935z M451.382,447.596c-1.379,2.733-4.112,4.522-7.168,4.693
				c-3.056,0.172-5.972-1.3-7.648-3.861l-27.563-42.24c4.183-3.955,9.038-7.134,14.336-9.387l27.563,42.24
				C452.578,441.603,452.761,444.864,451.382,447.596z"/>
			<circle cx="110.933" cy="110.935" r="59.733"/>
			<path d="M110.933,34.135c4.713,0,8.533-3.821,8.533-8.533V8.535c0-4.713-3.82-8.533-8.533-8.533s-8.533,3.82-8.533,8.533v17.067
				C102.4,30.315,106.221,34.135,110.933,34.135z"/>
			<path d="M60.877,41.303c1.513,2.662,4.337,4.309,7.399,4.316c3.062,0.007,5.893-1.628,7.418-4.283
				c1.525-2.655,1.511-5.924-0.038-8.566l-8.533-14.78c-2.372-4.047-7.566-5.42-11.628-3.074c-4.062,2.345-5.47,7.53-3.151,11.608
				L60.877,41.303z"/>
			<path d="M17.98,67.125l14.788,8.533c4.078,2.318,9.262,0.911,11.608-3.151c2.345-4.062,0.972-9.256-3.074-11.628l-14.788-8.533
				c-4.078-2.318-9.262-0.911-11.608,3.151S13.933,64.753,17.98,67.125z"/>
			<path d="M8.533,119.468H25.6c4.713,0,8.533-3.82,8.533-8.533s-3.821-8.533-8.533-8.533H8.533c-4.713,0-8.533,3.82-8.533,8.533
				S3.82,119.468,8.533,119.468z"/>
			<path d="M41.334,146.174c-2.655-1.525-5.924-1.511-8.566,0.038l-14.788,8.533c-2.662,1.513-4.309,4.337-4.316,7.399
				s1.628,5.893,4.283,7.418c2.655,1.525,5.924,1.511,8.566-0.038l14.788-8.533c2.662-1.513,4.309-4.337,4.316-7.399
				S43.989,147.699,41.334,146.174z"/>
			<path d="M59.724,208.196c3.062-0.007,5.886-1.654,7.399-4.316l8.533-14.78c2.318-4.078,0.911-9.262-3.151-11.608
				c-4.062-2.345-9.256-0.972-11.628,3.074l-8.533,14.78c-1.549,2.642-1.563,5.911-0.038,8.566
				C53.831,206.568,56.662,208.203,59.724,208.196z"/>
			<path d="M102.4,196.268v17.067c0,4.713,3.82,8.533,8.533,8.533s8.533-3.821,8.533-8.533v-17.067c0-4.713-3.82-8.533-8.533-8.533
				S102.4,191.556,102.4,196.268z"/>
			<path d="M160.99,180.567c-2.357-4.081-7.575-5.48-11.657-3.123c-4.081,2.357-5.479,7.575-3.123,11.657l8.533,14.78
				c1.513,2.662,4.337,4.309,7.399,4.316s5.893-1.628,7.418-4.283c1.525-2.655,1.511-5.924-0.038-8.566L160.99,180.567z"/>
			<path d="M189.099,146.212c-4.078-2.318-9.262-0.911-11.608,3.151c-2.345,4.062-0.972,9.256,3.074,11.628l14.788,8.533
				c2.642,1.549,5.911,1.563,8.566,0.038c2.655-1.525,4.29-4.356,4.283-7.418c-0.007-3.062-1.654-5.886-4.316-7.399L189.099,146.212
				z"/>
			<path d="M187.733,110.935c0,4.713,3.82,8.533,8.533,8.533h17.067c4.713,0,8.533-3.82,8.533-8.533s-3.821-8.533-8.533-8.533
				h-17.067C191.554,102.402,187.733,106.222,187.733,110.935z"/>
			<path d="M184.841,76.802c1.498,0.003,2.971-0.391,4.267-1.143l14.788-8.533c2.662-1.513,4.309-4.337,4.316-7.399
				c0.007-3.062-1.628-5.893-4.283-7.418c-2.655-1.525-5.924-1.511-8.566,0.038l-14.788,8.533c-3.345,1.931-4.975,5.868-3.975,9.598
				C177.598,74.208,180.978,76.802,184.841,76.802z"/>
			<path d="M149.333,44.426c4.081,2.356,9.3,0.958,11.657-3.123l8.533-14.78c1.549-2.642,1.563-5.911,0.038-8.566
				c-1.525-2.655-4.356-4.29-7.418-4.283s-5.886,1.654-7.399,4.316l-8.533,14.78C143.854,36.851,145.252,42.07,149.333,44.426z"/>
		</g>
	</g>
</g>
<g>
</g>
<g>
</g>
<g>
</g>
<g>
</g>
<g>
</g>
<g>
</g>
<g>
</g>
<g>
</g>
<g>
</g>
<g>
</g>
<g>
</g>
<g>
</g>
<g>
</g>
<g>
</g>
<g>
</g>
</svg>
