<svg id="Capa_1" enable-background="new 0 0 510.064 510.064" height="512" viewBox="0 0 510.064 510.064" fill="white" width="512" xmlns="http://www.w3.org/2000/svg"><path d="m498.728 286.85c.894-1.243 1.677-2.84 2.109-4.214 23.295-73.755 2.942-158.007-66.273-217.992-99.42-86.164-259.615-86.186-359.061 0-68.872 59.688-89.566 143.648-66.41 217.549.596 2.117 1.696 4.176 3.313 5.97.191.211 232.475 218.261 234.747 219.658 5.191 3.209 11.91 2.953 16.86-.756.855-.64 233.274-218.202 234.715-220.215zm-333.942-20.139c.04.123 23.178 71.069 57.872 177.452l-183.013-171.502c6.582-29.298 32.663-50.602 63.388-50.602 28.143 0 52.959 17.944 61.753 44.652zm30.124-4.388c21.941-53.479 98.21-53.712 120.247 0l-60.124 184.357zm150.371 4.388c8.793-26.707 33.61-44.651 61.752-44.651 30.73 0 56.809 21.304 63.387 50.603l-183.011 171.5c.203-.622 57.919-177.597 57.872-177.452zm134.724-40.575c-30.425-36.416-82.397-44.286-121.954-20.522 1.783-13.898 2.893-27.584 2.893-37.904 0-50.167-14.11-96.261-37.871-128.623 89.645 24.449 158.593 97.62 156.932 187.049zm-209.494-195.612c.302.208.611.408.93.596 35.59 20.921 59.502 75.812 59.502 136.589 0 15.292-2.635 37.266-5.882 55.09-37.605-41.005-102.489-40.965-140.057 0-3.246-17.824-5.882-39.798-5.882-55.09 0-60.777 23.912-115.668 59.502-136.589.319-.188.628-.388.93-.596 10.195-.597 19.993-.642 30.957 0zm-83.517 8.563c-23.762 32.362-37.871 78.456-37.871 128.623 0 10.32 1.11 24.006 2.893 37.904-39.557-23.763-91.528-15.894-121.954 20.527-1.654-89.184 66.991-162.524 156.932-187.054z"/></svg>
