<?xml version="1.0" encoding="UTF-8"?> <svg xmlns="http://www.w3.org/2000/svg" width="200" height="200" viewBox="0 0 368 368" fill="none"> <path d="M261.336 226.04C258.04 223.088 252.976 223.376 250.04 226.664C233.352 245.312 209.288 256 184 256C158.72 256 134.648 245.312 117.96 226.664C115.008 223.376 109.96 223.088 106.664 226.04C103.368 228.984 103.096 234.04 106.04 237.336C125.76 259.368 154.176 272 184 272C213.832 272 242.248 259.36 261.96 237.336C264.904 234.04 264.624 228.984 261.336 226.04Z" fill="#1d1a1a"></path> <path d="M184 0C82.544 0 0 82.544 0 184C0 285.456 82.544 368 184 368C285.456 368 368 285.456 368 184C368 82.544 285.456 0 184 0ZM184 352C91.36 352 16 276.64 16 184C16 91.36 91.36 16 184 16C276.64 16 352 91.36 352 184C352 276.64 276.64 352 184 352Z" fill="#1d1a1a"></path> <path d="M248 128C225.944 128 208 145.944 208 168C208 172.416 211.584 176 216 176C220.416 176 224 172.416 224 168C224 154.768 234.768 144 248 144C261.232 144 272 154.768 272 168C272 172.416 275.584 176 280 176C284.416 176 288 172.416 288 168C288 145.944 270.056 128 248 128Z" fill="#1d1a1a"></path> <path d="M144 168C144 172.416 147.584 176 152 176C156.416 176 160 172.416 160 168C160 145.944 142.056 128 120 128C97.944 128 80 145.944 80 168C80 172.416 83.584 176 88 176C92.416 176 96 172.416 96 168C96 154.768 106.768 144 120 144C133.232 144 144 154.768 144 168Z" fill="#1d1a1a"></path> </svg> 
